<svg width="20" height="14" viewBox="0 0 20 14" fill="none" xmlns="http://www.w3.org/2000/svg">
<path d="M13.9717 0.883789C12.6127 0.886329 11.3083 1.41838 10.3352 2.36701L10.8393 3.37104L10.6319 3.54114C10.1784 2.74462 9.52462 2.0804 8.7354 1.6143C7.94619 1.14819 7.0489 0.896378 6.13241 0.883789C3.26139 0.883789 0.946323 3.39593 0.946323 6.33748V12.6749C0.942309 12.7304 0.950285 12.7861 0.969715 12.8383C0.989145 12.8904 1.01958 12.9378 1.05893 12.9772C1.09829 13.0165 1.14565 13.0469 1.19781 13.0664C1.24997 13.0858 1.3057 13.0938 1.36121 13.0898H3.43564C3.4861 13.0906 3.5362 13.0813 3.583 13.0624C3.62981 13.0436 3.67235 13.0155 3.70813 12.98C3.74391 12.9444 3.77219 12.902 3.7913 12.8553C3.81041 12.8086 3.81998 12.7585 3.81942 12.7081V6.29806C3.81942 4.84596 4.70312 3.64279 6.21124 3.64279C7.62185 3.64279 8.62588 4.69453 8.62588 6.25035V11.5132C8.62157 11.5661 8.62831 11.6194 8.64565 11.6696C8.663 11.7198 8.69059 11.7659 8.72666 11.8049C8.76274 11.8439 8.80651 11.875 8.85522 11.8962C8.90394 11.9174 8.95652 11.9283 9.00965 11.9281H10.9949C11.0479 11.9283 11.1004 11.9174 11.149 11.8962C11.1977 11.875 11.2413 11.8439 11.2772 11.8048C11.3131 11.7658 11.3405 11.7197 11.3576 11.6695C11.3747 11.6193 11.3812 11.566 11.3766 11.5132V6.24205C11.3766 4.68623 12.4304 3.63449 13.841 3.63449C15.347 3.63449 16.1851 4.82936 16.1851 6.28977V12.6998C16.1872 12.7521 16.1997 12.8035 16.2217 12.851C16.2437 12.8985 16.2749 12.9412 16.3134 12.9766C16.3519 13.0121 16.3971 13.0396 16.4463 13.0576C16.4954 13.0756 16.5477 13.0837 16.6 13.0815H18.6558C18.7113 13.0855 18.767 13.0775 18.8192 13.0581C18.8713 13.0386 18.9187 13.0082 18.958 12.9689C18.9974 12.9295 19.0278 12.8821 19.0473 12.83C19.0667 12.7778 19.0747 12.7221 19.0707 12.6666V6.33748C19.0416 3.39593 16.8178 0.883789 13.9717 0.883789Z" fill="#00B463"/>
</svg>
