<svg width="120" height="21" viewBox="0 0 120 21" fill="none" xmlns="http://www.w3.org/2000/svg">
<g clip-path="url(#clip0_362_522)">
<path d="M14.3005 2.08025C12.8098 2.08165 11.3786 2.66557 10.3123 3.70742L10.8643 4.80817L10.6314 4.99642C10.1337 4.12271 9.41659 3.39406 8.5509 2.8826C7.68521 2.37113 6.70099 2.09456 5.6956 2.08025C2.54652 2.08025 0.000449121 4.83369 0.000449121 8.06254V15.0147C-0.00227504 15.0741 0.00741624 15.1334 0.0289001 15.1889C0.0503839 15.2443 0.0832022 15.2946 0.125236 15.3366C0.16727 15.3787 0.217594 15.4115 0.273021 15.433C0.328448 15.4545 0.387752 15.4642 0.447135 15.4614H2.72837C2.78364 15.4623 2.83853 15.4521 2.88981 15.4314C2.94108 15.4107 2.9877 15.38 3.02694 15.3411C3.06618 15.3022 3.09724 15.2558 3.11829 15.2047C3.13934 15.1535 3.14996 15.0988 3.14953 15.0435V8.02425C3.14953 6.42897 4.1067 5.11127 5.77217 5.11127C7.31959 5.11127 8.42352 6.26625 8.42352 7.98277V13.7545C8.41958 13.8117 8.42747 13.8692 8.4467 13.9233C8.46593 13.9773 8.49609 14.0269 8.5353 14.0688C8.57451 14.1107 8.62194 14.1441 8.67462 14.1668C8.72729 14.1896 8.7841 14.2013 8.84149 14.2012H11.0206C11.0782 14.2013 11.1351 14.1896 11.1879 14.1668C11.2408 14.1441 11.2884 14.1108 11.3278 14.0689C11.3673 14.0271 11.3978 13.9776 11.4174 13.9235C11.437 13.8694 11.4453 13.8119 11.4418 13.7545V7.95724C11.4418 6.25349 12.5936 5.08574 14.1442 5.08574C15.7969 5.08574 16.7158 6.39706 16.7158 7.99872V15.0179C16.7207 15.1316 16.7699 15.2389 16.8527 15.317C16.9355 15.395 17.0455 15.4377 17.1593 15.4359H19.4182C19.4776 15.4386 19.5369 15.4289 19.5923 15.4075C19.6477 15.386 19.6981 15.3532 19.7401 15.3111C19.7821 15.2691 19.8149 15.2188 19.8364 15.1633C19.8579 15.1079 19.8676 15.0486 19.8649 14.9892V8.06254C19.8649 4.83369 17.4241 2.08025 14.3005 2.08025Z" fill="#00B463"/>
<path d="M34.7197 2.34187H32.6458C32.5884 2.33839 32.5309 2.3467 32.4768 2.36629C32.4227 2.38589 32.3732 2.41635 32.3314 2.45581C32.2895 2.49527 32.2562 2.5429 32.2334 2.59573C32.2107 2.64857 32.199 2.70551 32.1991 2.76303V3.05017L32.933 4.20515L32.7351 4.40296C32.1285 3.68773 31.376 3.11047 30.528 2.70987C29.68 2.30927 28.7562 2.0946 27.8185 2.08025C26.0093 2.08025 24.2743 2.79892 22.995 4.07818C21.7158 5.35744 20.9971 7.0925 20.9971 8.90165C20.9971 10.7108 21.7158 12.4458 22.995 13.7251C24.2743 15.0044 26.0093 15.7231 27.8185 15.7231C28.7604 15.7123 29.689 15.5001 30.5421 15.1005C31.3951 14.701 32.1526 14.1234 32.7638 13.4067L32.933 13.5471L32.1991 14.7531V15.0148C32.1983 15.0736 32.2092 15.1321 32.2314 15.1867C32.2535 15.2413 32.2864 15.2909 32.328 15.3325C32.3697 15.3742 32.4193 15.407 32.4738 15.4292C32.5284 15.4513 32.5869 15.4623 32.6458 15.4614H34.7197C34.7789 15.4642 34.8381 15.4545 34.8933 15.433C34.9486 15.4115 34.9988 15.3786 35.0405 15.3365C35.0823 15.2944 35.1148 15.2441 35.1359 15.1886C35.1571 15.1332 35.1663 15.074 35.1631 15.0148V2.76303C35.1657 2.70511 35.1558 2.64731 35.1341 2.59355C35.1124 2.53979 35.0794 2.49131 35.0374 2.45139C34.9953 2.41147 34.9452 2.38104 34.8904 2.36215C34.8356 2.34325 34.7774 2.33634 34.7197 2.34187ZM27.8185 12.7846C25.5596 12.7846 23.9898 11.1893 23.9898 8.92717C23.9898 6.66506 25.5628 5.01873 27.8185 5.01873C28.3373 4.99807 28.8547 5.08503 29.3383 5.27413C29.8218 5.46323 30.261 5.7504 30.6281 6.11753C30.9953 6.48467 31.2824 6.92382 31.4715 7.40737C31.6606 7.89091 31.7476 8.40837 31.7269 8.92717C31.7269 11.1861 30.0997 12.7846 27.8185 12.7846Z" fill="#00B463"/>
<path d="M64.3371 2.34187H62.2601C62.2026 2.33839 62.1451 2.3467 62.091 2.36629C62.037 2.38589 61.9875 2.41635 61.9456 2.45581C61.9038 2.49527 61.8704 2.5429 61.8477 2.59573C61.825 2.64857 61.8133 2.70551 61.8134 2.76303V3.05017L62.5504 4.20515L62.3494 4.40296C61.7432 3.68725 60.9907 3.10965 60.1427 2.70901C59.2946 2.30837 58.3706 2.09398 57.4327 2.08025C55.6236 2.08025 53.8885 2.79892 52.6093 4.07818C51.33 5.35744 50.6113 7.0925 50.6113 8.90165C50.6113 10.7108 51.33 12.4458 52.6093 13.7251C53.8885 15.0044 55.6236 15.7231 57.4327 15.7231C58.3747 15.7128 59.3035 15.5007 60.1566 15.1011C61.0096 14.7015 61.7672 14.1238 62.3781 13.4067L62.5504 13.5471L61.8134 14.7531V15.0148C61.8125 15.0736 61.8235 15.1321 61.8456 15.1867C61.8678 15.2413 61.9006 15.2909 61.9423 15.3325C61.9839 15.3742 62.0335 15.407 62.0881 15.4292C62.1427 15.4513 62.2012 15.4623 62.2601 15.4614H64.3339C64.3933 15.4642 64.4526 15.4545 64.508 15.433C64.5635 15.4115 64.6138 15.3787 64.6558 15.3366C64.6978 15.2946 64.7307 15.2443 64.7521 15.1889C64.7736 15.1334 64.7833 15.0741 64.7806 15.0148V2.76303C64.7826 2.70525 64.7724 2.64769 64.7505 2.59417C64.7286 2.54066 64.6956 2.49239 64.6537 2.45258C64.6117 2.41277 64.5619 2.38232 64.5073 2.36324C64.4527 2.34415 64.3947 2.33687 64.3371 2.34187ZM57.4359 12.7846C55.1802 12.7846 53.6073 11.1893 53.6073 8.92717C53.6073 6.66506 55.1834 5.01873 57.4359 5.01873C57.9549 4.99758 58.4725 5.08421 58.9563 5.27314C59.4401 5.46207 59.8794 5.74923 60.2467 6.11646C60.6139 6.4837 60.901 6.92306 61.09 7.40682C61.2789 7.89059 61.3655 8.40825 61.3444 8.92717C61.3444 11.1861 59.7076 12.7846 57.4359 12.7846Z" fill="#00B463"/>
<path d="M48.9142 2.34189H46.7893C46.4479 2.34189 46.266 2.52693 46.266 2.70879V9.11224C46.266 11.1063 44.9547 12.4974 42.9319 12.4974C41.0718 12.4974 39.8625 11.1063 39.8625 9.11224V2.70879C39.8625 2.52693 39.5754 2.34189 39.3903 2.34189H37.1091C37.014 2.34857 36.9245 2.38937 36.8571 2.45678C36.7897 2.5242 36.7489 2.61368 36.7422 2.70879V9.0899C36.7422 12.5006 39.4159 15.471 42.9319 15.471C44.5207 15.4709 46.0551 14.8925 47.2487 13.8438L47.3667 13.9491L46.4096 15.2254V15.7231C46.4096 17.0376 44.441 17.7714 43.2892 17.7714H42.5522C42.4935 17.768 42.4347 17.7761 42.3792 17.7954C42.3237 17.8148 42.2725 17.8448 42.2287 17.884C42.1848 17.9231 42.1491 17.9705 42.1236 18.0234C42.0981 18.0764 42.0832 18.1339 42.08 18.1926V20.2888C42.0905 20.4058 42.1451 20.5145 42.2328 20.5927C42.3205 20.6709 42.4347 20.7128 42.5522 20.7099H43.2892C46.7988 20.7099 49.3768 18.6648 49.3768 14.8074V2.70879C49.3617 2.59987 49.3052 2.50098 49.219 2.43265C49.1328 2.36432 49.0237 2.33181 48.9142 2.34189Z" fill="#00B463"/>
<path d="M111.096 2.33576e-06H69.7555C69.2821 1.58139e-06 68.8282 0.187803 68.4932 0.522187C68.1582 0.856571 67.9696 1.31022 67.9688 1.78353V8.89527C67.9696 11.2567 68.908 13.5212 70.5778 15.191C72.2476 16.8608 74.5121 17.7993 76.8736 17.8001H111.096C112.279 17.8225 113.455 17.6088 114.555 17.1714C115.654 16.734 116.656 16.0818 117.501 15.2529C118.346 14.4239 119.017 13.4348 119.475 12.3435C119.933 11.2522 120.169 10.0805 120.169 8.89687C120.169 7.71328 119.933 6.54157 119.475 5.45024C119.017 4.3589 118.346 3.36984 117.501 2.54088C116.656 1.71192 115.654 1.05969 114.555 0.62232C113.455 0.184951 112.279 -0.0287877 111.096 -0.00638501V2.33576e-06Z" fill="#00B463"/>
<path d="M73.0479 5.66003H75.1632C76.5766 5.66003 77.3168 6.22476 77.3168 7.31274C77.3416 7.60226 77.2745 7.89225 77.125 8.14142C76.9755 8.39059 76.7512 8.58628 76.4841 8.70064C76.8553 8.77651 77.1859 8.98539 77.4139 9.28799C77.6419 9.59059 77.7515 9.96605 77.722 10.3438C77.722 11.939 76.2799 12.1432 75.4886 12.1432H73.0574L73.0479 5.66003ZM75.144 8.38478C75.8364 8.38478 76.181 8.09762 76.181 7.4978C76.181 6.89797 75.83 6.61083 75.144 6.61083H74.1869V8.38478H75.144ZM75.4854 11.1637C76.2256 11.1637 76.5766 10.8447 76.5766 10.2066C76.5766 9.56847 76.2256 9.24941 75.4854 9.24941H74.1933V11.1637H75.4854Z" fill="white"/>
<path d="M78.6885 9.85243V5.66003H79.8339V9.7248C79.8339 10.7585 80.4178 11.2308 81.2186 11.2308C82.0194 11.2308 82.6129 10.7585 82.6129 9.7248V5.66003H83.7519V9.85243C83.7519 11.4477 82.6703 12.2549 81.2186 12.2549C79.7669 12.2549 78.6885 11.47 78.6885 9.85243Z" fill="white"/>
<path d="M84.5244 10.3884L85.6507 10.1492C85.7145 10.5007 85.9071 10.8159 86.1909 11.033C86.4747 11.2501 86.8293 11.3536 87.1853 11.3233C87.9415 11.3233 88.3754 10.9723 88.3754 10.398C88.3754 9.73439 87.6735 9.54932 86.8695 9.32599C85.8932 9.05798 84.7382 8.72616 84.7382 7.43399C84.7382 6.28858 85.6602 5.54199 87.0003 5.54199C88.1648 5.54199 89.2337 6.02058 89.5112 7.23937L88.4775 7.48185C88.4033 7.17215 88.219 6.90001 87.9589 6.71625C87.6988 6.53249 87.3808 6.44966 87.0641 6.48321C86.3622 6.48321 85.8932 6.82459 85.8932 7.37017C85.8932 7.97 86.5568 8.13591 87.3225 8.32734C88.3403 8.58578 89.5559 8.9176 89.5559 10.3119C89.5559 11.4956 88.5987 12.2613 87.163 12.2613C85.8006 12.2645 84.7286 11.5881 84.5244 10.3884Z" fill="white"/>
<path d="M90.6084 5.66003H91.7538V12.1432H90.6084V5.66003Z" fill="white"/>
<path d="M93.0654 5.66003H94.4406L97.5705 10.5831V5.66003H98.7063V12.1432H97.3216L94.2108 7.22022V12.1432H93.0654V5.66003Z" fill="white"/>
<path d="M100.018 5.66003H103.738V6.66187H101.185V8.39754H103.467V9.39299H101.185V11.1286H103.738V12.1337H100.034L100.018 5.66003Z" fill="white"/>
<path d="M104.255 10.3884L105.381 10.1492C105.445 10.5007 105.638 10.8159 105.921 11.033C106.205 11.2501 106.56 11.3536 106.916 11.3233C107.672 11.3233 108.106 10.9723 108.106 10.398C108.106 9.73439 107.404 9.54932 106.6 9.32599C105.624 9.05798 104.469 8.72616 104.469 7.43399C104.469 6.28858 105.391 5.54199 106.731 5.54199C107.895 5.54199 108.948 6.02058 109.242 7.23937L108.208 7.48185C108.133 7.1725 107.949 6.90078 107.689 6.71713C107.429 6.53347 107.111 6.45035 106.795 6.48321C106.093 6.48321 105.624 6.82459 105.624 7.37017C105.624 7.97 106.287 8.13591 107.053 8.32734C108.071 8.58578 109.286 8.9176 109.286 10.3119C109.286 11.4956 108.329 12.2613 106.893 12.2613C105.531 12.2645 104.459 11.5881 104.255 10.3884Z" fill="white"/>
<path d="M109.876 10.3884L111.002 10.1492C111.066 10.5007 111.259 10.8159 111.542 11.033C111.826 11.2501 112.181 11.3536 112.537 11.3233C113.293 11.3233 113.727 10.9723 113.727 10.398C113.727 9.73439 113.025 9.54932 112.224 9.32599C111.245 9.05798 110.09 8.72616 110.09 7.43399C110.09 6.28858 111.012 5.54199 112.352 5.54199C113.516 5.54199 114.585 6.02058 114.863 7.23937L113.829 7.48185C113.755 7.17215 113.571 6.90001 113.311 6.71625C113.05 6.53249 112.732 6.44966 112.416 6.48321C111.714 6.48321 111.245 6.82459 111.245 7.37017C111.245 7.97 111.908 8.13591 112.674 8.32734C113.692 8.58578 114.907 8.9176 114.907 10.3119C114.907 11.4956 113.95 12.2613 112.515 12.2613C111.152 12.2645 110.08 11.5881 109.876 10.3884Z" fill="white"/>
</g>
<defs>
<clipPath id="clip0_362_522">
<rect width="120" height="20.7099" fill="white"/>
</clipPath>
</defs>
</svg>
