<svg width="113" height="32" viewBox="0 0 113 32" fill="none" xmlns="http://www.w3.org/2000/svg">
<g clip-path="url(#clip0_591_7194)">
<path d="M24.8085 3.56585e-07C22.2205 -0.000690203 19.7351 1.00164 17.8839 2.79254L18.8373 4.68074L18.4358 5.00869C17.5662 3.51679 16.3199 2.27436 14.8191 1.40325C13.3184 0.532139 11.6148 0.0622678 9.87535 0.0397452C4.41591 0.0397452 0.000189629 4.77019 0.000189629 10.3155V22.241C-0.00562753 22.343 0.0103636 22.4451 0.0471403 22.5405C0.0839169 22.636 0.140645 22.7226 0.213596 22.7949C0.286547 22.8671 0.374087 22.9233 0.470477 22.9597C0.566867 22.9961 0.669927 23.012 0.772931 23.0062H4.72701C4.8236 23.0075 4.91947 22.9897 5.00896 22.9537C5.09846 22.9177 5.17977 22.8643 5.24807 22.7967C5.31637 22.7291 5.37027 22.6486 5.4066 22.5599C5.44294 22.4713 5.46097 22.3764 5.45962 22.2807V10.1863C5.45962 7.43354 7.14562 5.21739 10.0158 5.21739C12.6954 5.21739 14.6122 7.20497 14.6122 10.1366V20.0745C14.6054 20.1731 14.6189 20.2719 14.652 20.3651C14.6851 20.4583 14.7371 20.5438 14.8048 20.6163C14.8724 20.6889 14.9543 20.747 15.0455 20.7872C15.1366 20.8273 15.2351 20.8486 15.3348 20.8497H19.1183C19.218 20.8486 19.3165 20.8273 19.4076 20.7872C19.4987 20.747 19.5806 20.6889 19.6483 20.6163C19.7159 20.5438 19.7679 20.4583 19.801 20.3651C19.8341 20.2719 19.8477 20.1731 19.8408 20.0745V10.1366C19.7965 9.50283 19.8851 8.86678 20.1012 8.26857C20.3173 7.67036 20.6562 7.12295 21.0964 6.66082C21.5367 6.19869 22.0689 5.83186 22.6594 5.58344C23.2499 5.33501 23.886 5.21038 24.5275 5.21739C27.3978 5.21739 28.9934 7.47329 28.9934 10.1863V22.2609C29.0013 22.4577 29.0865 22.6437 29.2308 22.7792C29.3752 22.9148 29.5673 22.9891 29.7662 22.9863H33.6801C33.7831 22.9921 33.8862 22.9762 33.9826 22.9398C34.079 22.9034 34.1665 22.8472 34.2395 22.775C34.3124 22.7028 34.3691 22.6161 34.4059 22.5206C34.4427 22.4252 34.4587 22.3231 34.4529 22.2211V10.2957C34.4529 4.73044 30.2178 3.56585e-07 24.8085 3.56585e-07Z" fill="#00B463"/>
<path d="M60.2247 0.447035H56.6319C56.532 0.440137 56.4318 0.453869 56.3376 0.487356C56.2433 0.520844 56.1572 0.573364 56.0845 0.641574C56.0118 0.709784 55.9543 0.792194 55.9155 0.883592C55.8767 0.974989 55.8575 1.07337 55.8592 1.1725V1.65946L57.1337 3.64704L56.7824 3.98492C55.7295 2.75775 54.4234 1.76806 52.9521 1.08239C51.4807 0.396727 49.8781 0.0309815 48.2521 0.00976562C45.114 0.00976562 42.1044 1.24421 39.8855 3.44153C37.6665 5.63885 36.4199 8.61906 36.4199 11.7265C36.4199 14.834 37.6665 17.8142 39.8855 20.0115C42.1044 22.2089 45.114 23.4433 48.2521 23.4433C49.886 23.4259 51.4973 23.0622 52.9774 22.3765C54.4574 21.6908 55.772 20.6991 56.8326 19.4682L57.1337 19.7067L55.8592 21.7737V22.2309C55.8578 22.3317 55.8769 22.4318 55.9153 22.5253C55.9536 22.6187 56.0105 22.7036 56.0825 22.775C56.1545 22.8463 56.2402 22.9026 56.3346 22.9406C56.429 22.9786 56.5301 22.9974 56.6319 22.9961H60.2247C60.3273 23.0003 60.4297 22.9834 60.5254 22.9464C60.6211 22.9095 60.7079 22.8532 60.7806 22.7813C60.8532 22.7094 60.91 22.6234 60.9473 22.5286C60.9846 22.4339 61.0017 22.3325 60.9975 22.2309V1.1725C61.0023 1.07251 60.9853 0.972673 60.9476 0.879786C60.91 0.786899 60.8525 0.703152 60.7791 0.63428C60.7057 0.565409 60.6182 0.51303 60.5225 0.480714C60.4269 0.448399 60.3253 0.436909 60.2247 0.447035V0.447035ZM48.2521 18.3849C46.4661 18.3849 44.7533 17.6824 43.4904 16.4318C42.2276 15.1813 41.5181 13.4851 41.5181 11.7166C41.5181 9.94805 42.2276 8.25194 43.4904 7.00139C44.7533 5.75084 46.4661 5.04828 48.2521 5.04828C50.038 5.04828 51.7508 5.75084 53.0137 7.00139C54.2766 8.25194 54.986 9.94805 54.986 11.7166C54.986 13.4851 54.2766 15.1813 53.0137 16.4318C51.7508 17.6824 50.038 18.3849 48.2521 18.3849V18.3849Z" fill="#00B463"/>
<path d="M111.608 0.447035H108.015C107.915 0.440137 107.815 0.453869 107.72 0.487356C107.626 0.520844 107.54 0.573364 107.467 0.641574C107.395 0.709784 107.337 0.792194 107.298 0.883592C107.26 0.974989 107.24 1.07337 107.242 1.1725V1.65946L108.517 3.64704L108.165 3.98492C107.112 2.75775 105.806 1.76806 104.335 1.08239C102.863 0.396727 101.261 0.0309815 99.6349 0.00976562C96.4968 0.00976562 93.4872 1.24421 91.2683 3.44153C89.0493 5.63885 87.8027 8.61906 87.8027 11.7265C87.8027 14.834 89.0493 17.8142 91.2683 20.0115C93.4872 22.2089 96.4968 23.4433 99.6349 23.4433C101.269 23.4259 102.88 23.0622 104.36 22.3765C105.84 21.6908 107.155 20.6991 108.215 19.4682L108.517 19.7067L107.242 21.7737V22.2309C107.241 22.3317 107.26 22.4318 107.298 22.5253C107.336 22.6187 107.393 22.7036 107.465 22.775C107.537 22.8463 107.623 22.9026 107.717 22.9406C107.812 22.9786 107.913 22.9974 108.015 22.9961H111.608C111.71 23.0003 111.813 22.9834 111.908 22.9464C112.004 22.9095 112.091 22.8532 112.163 22.7813C112.236 22.7094 112.293 22.6234 112.33 22.5286C112.367 22.4339 112.385 22.3325 112.38 22.2309V1.1725C112.385 1.07251 112.368 0.972673 112.33 0.879786C112.293 0.786899 112.235 0.703152 112.162 0.63428C112.089 0.565409 112.001 0.51303 111.905 0.480714C111.81 0.448399 111.708 0.436909 111.608 0.447035V0.447035ZM99.6349 18.3849C97.8489 18.3849 96.1361 17.6824 94.8732 16.4318C93.6104 15.1813 92.9009 13.4851 92.9009 11.7166C92.9009 9.94805 93.6104 8.25194 94.8732 7.00139C96.1361 5.75084 97.8489 5.04828 99.6349 5.04828C101.421 5.04828 103.134 5.75084 104.397 7.00139C105.659 8.25194 106.369 9.94805 106.369 11.7166C106.369 13.4851 105.659 15.1813 104.397 16.4318C103.134 17.6824 101.421 18.3849 99.6349 18.3849V18.3849Z" fill="#00B463"/>
<path d="M84.8522 0.447051H81.2193C80.6272 0.447051 80.306 0.765068 80.306 1.07314V12.0744C80.3565 12.8431 80.2423 13.6138 79.9708 14.3358C79.6994 15.0578 79.2769 15.7148 78.7311 16.2637C78.1853 16.8127 77.5284 17.2412 76.8036 17.5211C76.0788 17.801 75.3025 17.9261 74.5254 17.888C71.2939 17.888 69.2065 15.5029 69.2065 12.0744V1.07314C69.2065 0.765068 68.7047 0.447051 68.3836 0.447051H64.3693C64.2062 0.46058 64.0532 0.530891 63.9374 0.645503C63.8217 0.760115 63.7507 0.911623 63.737 1.07314V12.0048C63.7048 14.8623 64.8163 17.6162 66.8284 19.6647C68.8406 21.7131 71.5898 22.8894 74.4753 22.9365C77.2323 22.9372 79.8947 21.9405 81.9619 20.134L82.1727 20.3228L80.5268 22.529V23.4135C80.5268 25.6694 77.1147 26.9315 75.1176 26.9315H73.843C73.7407 26.9248 73.638 26.9383 73.541 26.9713C73.444 27.0042 73.3546 27.056 73.278 27.1235C73.2014 27.191 73.1392 27.273 73.0949 27.3646C73.0506 27.4562 73.0252 27.5556 73.0201 27.657V31.2545C73.0379 31.4566 73.1331 31.6442 73.2861 31.7791C73.439 31.9139 73.6383 31.9858 73.843 31.98H75.1176C81.2093 31.98 85.6752 28.462 85.6752 21.8334V1.07314C85.6477 0.88305 85.5462 0.711135 85.3924 0.594142C85.2387 0.477149 85.0448 0.424355 84.8522 0.447051V0.447051Z" fill="#00B463"/>
</g>
<defs>
<clipPath id="clip0_591_7194">
<rect width="112.39" height="32" fill="white"/>
</clipPath>
</defs>
</svg>